<?xml version="1.0" encoding="UTF-8" standalone="no"?>
<!-- Created with Inkscape (http://www.inkscape.org/) -->

<svg
   xmlns:dc="http://purl.org/dc/elements/1.1/"
   xmlns:cc="http://creativecommons.org/ns#"
   xmlns:rdf="http://www.w3.org/1999/02/22-rdf-syntax-ns#"
   xmlns:svg="http://www.w3.org/2000/svg"
   xmlns="http://www.w3.org/2000/svg"
   xmlns:sodipodi="http://sodipodi.sourceforge.net/DTD/sodipodi-0.dtd"
   xmlns:inkscape="http://www.inkscape.org/namespaces/inkscape"
   width="277.4375"
   height="297.4375"
   id="svg2"
   version="1.1"
   inkscape:version="0.48.2 r9819"
   sodipodi:docname="txr.svg"
   inkscape:export-filename="C:\cygwin\home\kaz\txr\win\txr.png"
   inkscape:export-xdpi="291.99411"
   inkscape:export-ydpi="291.99411">
  <defs
     id="defs4" />
  <sodipodi:namedview
     id="base"
     pagecolor="#ffffff"
     bordercolor="#666666"
     borderopacity="1.0"
     inkscape:pageopacity="0.0"
     inkscape:pageshadow="2"
     inkscape:zoom="1.4"
     inkscape:cx="123.79697"
     inkscape:cy="123.62425"
     inkscape:document-units="px"
     inkscape:current-layer="text3838"
     showgrid="false"
     inkscape:snap-bbox="false"
     inkscape:object-paths="true"
     inkscape:snap-nodes="false"
     inkscape:snap-bbox-edge-midpoints="true"
     inkscape:snap-global="false"
     inkscape:window-width="1018"
     inkscape:window-height="861"
     inkscape:window-x="251"
     inkscape:window-y="245"
     inkscape:window-maximized="0"
     showguides="true"
     inkscape:guide-bbox="true"
     fit-margin-top="0"
     fit-margin-left="0"
     fit-margin-right="0"
     fit-margin-bottom="0">
    <sodipodi:guide
       orientation="1,0"
       position="441.41562,465.50051"
       id="guide3910" />
  </sodipodi:namedview>
  <metadata
     id="metadata7">
    <rdf:RDF>
      <cc:Work
         rdf:about="">
        <dc:format>image/svg+xml</dc:format>
        <dc:type
           rdf:resource="http://purl.org/dc/dcmitype/StillImage" />
        <dc:title></dc:title>
      </cc:Work>
    </rdf:RDF>
  </metadata>
  <g
     inkscape:label="Layer 1"
     inkscape:groupmode="layer"
     id="layer1"
     transform="translate(-200.03125,-416.34375)">
    <g
       style="font-size:144px;font-style:italic;font-variant:normal;font-weight:normal;font-stretch:normal;text-align:start;line-height:125%;letter-spacing:0px;word-spacing:0px;writing-mode:lr-tb;text-anchor:start;fill:#000000;fill-opacity:1;stroke:none;font-family:Times New Roman;-inkscape-font-specification:'Times New Roman, Italic'"
       id="text3838">
      <g
         id="g3855"
         transform="translate(88.388348,92.934034)" />
      <g
         style="font-style:oblique;fill:#000000;font-family:Times New Roman;-inkscape-font-specification:Sans Oblique"
         id="text3861" />
      <g
         style="fill:#000000;font-family:Georgia;-inkscape-font-specification:Georgia Italic"
         id="text3885" />
      <g
         style="font-size:111.99990845px;font-style:normal;fill:#000000;font-family:Vani;-inkscape-font-specification:Vani"
         id="text3919"
         transform="matrix(3.078678,0,0,3.078678,-1110.4532,-1582.3752)">
        <path
           d="m 476.96875,651.28125 c -7.29171,7e-5 -14.03911,1.37247 -20.21875,4.125 -6.17972,2.75267 -11.36983,6.39069 -15.5625,10.875 -4.33856,4.5938 -7.66668,9.81776 -10,15.6875 -2.33334,5.86983 -3.50001,11.92191 -3.5,18.15625 -10e-6,7.29167 1.28645,13.62241 3.875,19 2.58853,5.3776 6.02082,9.89063 10.25,13.5 4.26559,3.60937 9.05205,6.29426 14.375,8.0625 5.32287,1.76822 10.74475,2.65623 16.25,2.65625 6.1614,-2e-5 11.73692,-0.987 16.75,-2.9375 5.01294,-1.95054 9.35409,-4.51564 13,-7.6875 l -1.71875,-2.78125 c -3.60945,2.98957 -7.66675,5.27603 -12.1875,6.84375 -4.5209,1.5677 -9.67194,2.34374 -15.46875,2.34375 -5.14067,-10e-6 -9.93234,-0.82814 -14.34375,-2.46875 -4.41149,-1.64064 -8.224,-4.09376 -11.46875,-7.375 -3.31773,-3.39062 -5.89586,-7.61198 -7.71875,-12.625 -1.82294,-5.013 -2.71877,-10.80728 -2.71875,-17.40625 -2e-5,-6.85413 1.16665,-13.00517 3.5,-18.4375 2.33331,-5.43223 5.36976,-9.94787 9.125,-13.59375 3.86454,-3.75515 8.14059,-6.59889 12.84375,-8.53125 4.70307,-1.93222 9.54162,-2.90618 14.5,-2.90625 5.21348,7e-5 9.82806,0.80215 13.875,2.40625 4.04679,1.60423 7.40096,3.79174 10.0625,6.5625 2.77074,2.80735 4.83846,6.02349 6.1875,9.6875 1.34887,3.6641 2.03116,7.66672 2.03125,11.96875 -0.1377,8.31795 -2.4429,16.899 -11.71184,23.81796 -4.24484,3.16863 -9.29313,4.01343 -14.18104,4.49201 -2.5623,0.25088 -7.11725,0.30793 -9.74156,0.25794 -1.81112,-0.0345 -3.02482,-0.27866 -3.74043,-0.81795 -0.71564,-0.53929 -1.06251,-1.22605 -1.0625,-2.0625 -1e-5,-0.90247 0.57819,-3.28219 1.71875,-7.15625 l 7.90625,-28.15625 3.59375,0 c 3.15321,4e-5 5.11461,0.28996 5.875,0.90625 1.00632,0.81447 1.49996,2.04944 1.5,3.65625 -4e-5,1.36476 -0.20014,2.91736 -0.625,4.65625 l 2.78622,0 4.09375,-13.875 -37.14277,0 -3.53125,13.87504 2.29405,0 c 0.62617,-2.3112 1.42225,-4.1203 2.40625,-5.375 0.98398,-1.25462 2.27599,-2.21462 3.875,-2.875 1.59897,-0.66031 3.69596,-0.96871 6.3125,-0.96875 l 2.71875,0 -8.34375,29.125 c -0.93928,3.16968 -1.69323,5.23924 -2.21875,6.21875 -0.52556,0.97952 -1.10147,1.65706 -1.75,2.03125 -0.93928,0.55029 -2.28692,0.8125 -4.03125,0.8125 l -0.875,0 -0.96875,3.46875 19.90942,0.12627 c 4.65825,0.0295 14.28759,-0.73275 17.58443,-1.82102 6.80584,-2.24657 10.97411,-5.63785 13.61133,-8.47036 1.87071,-2.00924 7.5173,-9.18725 7.82441,-20.78032 0.12261,-4.62853 0.078,-9.57025 -1.39847,-13.83592 -1.47666,-4.26557 -3.67197,-8.03119 -6.625,-11.3125 -2.95321,-3.31763 -6.74488,-6.00774 -11.375,-8.03125 -4.63028,-2.02336 -10.09903,-3.03118 -16.40625,-3.03125 z"
           id="path3928"
           inkscape:connector-curvature="0"
           sodipodi:nodetypes="cccssscssccccsscssscccccccsssccccccccccccccccccccsccssssccccc" />
      </g>
      <g
         transform="scale(1.0079587,0.9921041)"
         style="font-size:68.15803528px;fill:#000000;font-family:Times New Roman;-inkscape-font-specification:'Times New Roman, Italic'"
         id="text3923" />
    </g>
    <g
       style="font-size:201.27081299px;font-style:normal;font-variant:normal;font-weight:normal;font-stretch:normal;text-align:start;line-height:125%;letter-spacing:0px;word-spacing:0px;writing-mode:lr-tb;text-anchor:start;fill:#000000;fill-opacity:1;stroke:none;font-family:Times New Roman;-inkscape-font-specification:'Times New Roman,'"
       id="text3842" />
  </g>
</svg>
